<svg id="Layer_1" data-name="Layer 1" xmlns="http://www.w3.org/2000/svg" viewBox="0 0 84.74 33.86"><defs><style>.cls-1{fill:#00adee;}</style></defs><title>Artboard 1</title><path d="M52.5,33.86,38.11,20.72,51.4,9H45.31l-9.86,8.71V0h-4.1V10a8.7,8.7,0,0,0-4.23-1.23c-5.37-.06-8.33,4.86-8.33,4.86a8.63,8.63,0,0,0-6.87-4.84C8.12,8.48,5.29,11,4.11,12.28V9.37H0V33.86H4.11V21.61c.37-9.24,6.75-8.75,6.75-8.75,5.64.05,4.78,6.76,4.78,6.76l0,14.24h4.1L20,20c.77-7,6-7.07,6-7.07,5.38-.24,5.38,5.27,5.38,5.27v15.7h4.1v-10l11.18,10Z"/><path class="cls-1" d="M48.08,0a4.31,4.31,0,1,0,4.3,4.31A4.31,4.31,0,0,0,48.08,0Zm2.23,5H48.74V6.46H47.25V5H45.84V3.48h1.41V2h1.49V3.48h1.57Z"/><path class="cls-1" d="M57.52,14.87h1.22v11h4.67V27H57.52Z"/><path class="cls-1" d="M66.15,14.69h1.16V18h1.83v1H67.31v8H66.15V19H64.57V18h1.58Z"/><path class="cls-1" d="M79.84,14.56V27H78.7V25.47a4.93,4.93,0,0,1-1.63,1.32,4.54,4.54,0,0,1-5.23-.93,4.66,4.66,0,0,1-1.35-3.37,4.55,4.55,0,0,1,1.36-3.32,4.44,4.44,0,0,1,3.27-1.38,4.2,4.2,0,0,1,2,.48,4.53,4.53,0,0,1,1.57,1.41V14.56Zm-4.62,4.35a3.48,3.48,0,0,0-3.08,1.8,3.7,3.7,0,0,0-.48,1.82,3.57,3.57,0,0,0,.49,1.81,3.52,3.52,0,0,0,1.3,1.35,3.45,3.45,0,0,0,1.76.48A3.72,3.72,0,0,0,77,25.7a3.34,3.34,0,0,0,1.31-1.3,3.75,3.75,0,0,0,.46-1.84,3.58,3.58,0,0,0-1-2.6A3.41,3.41,0,0,0,75.22,18.91Z"/><path class="cls-1" d="M83.73,25.19a1,1,0,0,1,.72.3,1.05,1.05,0,0,1,0,1.45,1,1,0,1,1-.72-1.75Z"/></svg>